<?xml version="1.0" encoding="UTF-8"?>
<svg height="128px" viewBox="0 0 128 128" width="128px" xmlns="http://www.w3.org/2000/svg" xmlns:xlink="http://www.w3.org/1999/xlink">
    <clipPath id="a">
        <path d="m 64 5 h 60 v 62 h -60 z m 0 0"/>
    </clipPath>
    <clipPath id="b">
        <path d="m 64 5.75 c -33.136719 0 -60 26.863281 -60 60 s 26.863281 60 60 60 s 60 -26.863281 60 -60 s -26.863281 -60 -60 -60 z m 0 29 c 17.121094 0 31 13.878906 31 31 s -13.878906 31 -31 31 s -31 -13.878906 -31 -31 s 13.878906 -31 31 -31 z m 0 0"/>
    </clipPath>
    <clipPath id="c">
        <path d="m 64 66 h 60 v 60 h -60 z m 0 0"/>
    </clipPath>
    <clipPath id="d">
        <path d="m 64 5.75 c -33.136719 0 -60 26.863281 -60 60 s 26.863281 60 60 60 s 60 -26.863281 60 -60 s -26.863281 -60 -60 -60 z m 0 29 c 17.121094 0 31 13.878906 31 31 s -13.878906 31 -31 31 s -31 -13.878906 -31 -31 s 13.878906 -31 31 -31 z m 0 0"/>
    </clipPath>
    <clipPath id="e">
        <path d="m 64 66 h 42 v 60 h -42 z m 0 0"/>
    </clipPath>
    <clipPath id="f">
        <path d="m 64 5.75 c -33.136719 0 -60 26.863281 -60 60 s 26.863281 60 60 60 s 60 -26.863281 60 -60 s -26.863281 -60 -60 -60 z m 0 29 c 17.121094 0 31 13.878906 31 31 s -13.878906 31 -31 31 s -31 -13.878906 -31 -31 s 13.878906 -31 31 -31 z m 0 0"/>
    </clipPath>
    <clipPath id="g">
        <path d="m 4 5 h 60 v 62 h -60 z m 0 0"/>
    </clipPath>
    <clipPath id="h">
        <path d="m 64 5.75 c -33.136719 0 -60 26.863281 -60 60 s 26.863281 60 60 60 s 60 -26.863281 60 -60 s -26.863281 -60 -60 -60 z m 0 29 c 17.121094 0 31 13.878906 31 31 s -13.878906 31 -31 31 s -31 -13.878906 -31 -31 s 13.878906 -31 31 -31 z m 0 0"/>
    </clipPath>
    <clipPath id="i">
        <path d="m 4 66 h 60 v 60 h -60 z m 0 0"/>
    </clipPath>
    <clipPath id="j">
        <path d="m 64 5.75 c -33.136719 0 -60 26.863281 -60 60 s 26.863281 60 60 60 s 60 -26.863281 60 -60 s -26.863281 -60 -60 -60 z m 0 29 c 17.121094 0 31 13.878906 31 31 s -13.878906 31 -31 31 s -31 -13.878906 -31 -31 s 13.878906 -31 31 -31 z m 0 0"/>
    </clipPath>
    <clipPath id="k">
        <path d="m 22 66 h 42 v 60 h -42 z m 0 0"/>
    </clipPath>
    <clipPath id="l">
        <path d="m 64 5.75 c -33.136719 0 -60 26.863281 -60 60 s 26.863281 60 60 60 s 60 -26.863281 60 -60 s -26.863281 -60 -60 -60 z m 0 29 c 17.121094 0 31 13.878906 31 31 s -13.878906 31 -31 31 s -31 -13.878906 -31 -31 s 13.878906 -31 31 -31 z m 0 0"/>
    </clipPath>
    <clipPath id="m">
        <path d="m 64 3 h 60 v 62 h -60 z m 0 0"/>
    </clipPath>
    <clipPath id="n">
        <path d="m 64 3.867188 c -33.136719 0 -60 26.863281 -60 60 c 0 33.136718 26.863281 60 60 60 s 60 -26.863282 60 -60 c 0 -33.136719 -26.863281 -60 -60 -60 z m 0 29 c 17.121094 0 31 13.878906 31 31 c 0 17.121093 -13.878906 31 -31 31 s -31 -13.878907 -31 -31 c 0 -17.121094 13.878906 -31 31 -31 z m 0 0"/>
    </clipPath>
    <clipPath id="o">
        <path d="m 64 64 h 60 v 60 h -60 z m 0 0"/>
    </clipPath>
    <clipPath id="p">
        <path d="m 64 3.867188 c -33.136719 0 -60 26.863281 -60 60 c 0 33.136718 26.863281 60 60 60 s 60 -26.863282 60 -60 c 0 -33.136719 -26.863281 -60 -60 -60 z m 0 29 c 17.121094 0 31 13.878906 31 31 c 0 17.121093 -13.878906 31 -31 31 s -31 -13.878907 -31 -31 c 0 -17.121094 13.878906 -31 31 -31 z m 0 0"/>
    </clipPath>
    <clipPath id="q">
        <path d="m 4 3 h 60 v 62 h -60 z m 0 0"/>
    </clipPath>
    <clipPath id="r">
        <path d="m 64 3.867188 c -33.136719 0 -60 26.863281 -60 60 c 0 33.136718 26.863281 60 60 60 s 60 -26.863282 60 -60 c 0 -33.136719 -26.863281 -60 -60 -60 z m 0 29 c 17.121094 0 31 13.878906 31 31 c 0 17.121093 -13.878906 31 -31 31 s -31 -13.878907 -31 -31 c 0 -17.121094 13.878906 -31 31 -31 z m 0 0"/>
    </clipPath>
    <clipPath id="s">
        <path d="m 4 64 h 60 v 60 h -60 z m 0 0"/>
    </clipPath>
    <clipPath id="t">
        <path d="m 64 3.867188 c -33.136719 0 -60 26.863281 -60 60 c 0 33.136718 26.863281 60 60 60 s 60 -26.863282 60 -60 c 0 -33.136719 -26.863281 -60 -60 -60 z m 0 29 c 17.121094 0 31 13.878906 31 31 c 0 17.121093 -13.878906 31 -31 31 s -31 -13.878907 -31 -31 c 0 -17.121094 13.878906 -31 31 -31 z m 0 0"/>
    </clipPath>
    <g clip-path="url(#a)">
        <g clip-path="url(#b)">
            <path d="m 64 66.75 v -72 h 72 v 72 z m 0 0" fill="#3584e4"/>
            <path d="m 64 66.75 l 72 -72 v 72 z m 0 0" fill="#33d17a"/>
        </g>
    </g>
    <g clip-path="url(#c)">
        <g clip-path="url(#d)">
            <path d="m 64 66.75 l 72 72 v -72 z m 0 0" fill="#25737b"/>
        </g>
    </g>
    <g clip-path="url(#e)">
        <g clip-path="url(#f)">
            <path d="m 64 66.75 v 72 l 42 -28.882812 v -3 z m 0 0" fill="#5f6570"/>
        </g>
    </g>
    <g clip-path="url(#g)">
        <g clip-path="url(#h)">
            <path d="m 64 66.75 v -72 h -72 v 72 z m 0 0" fill="#62a0ea"/>
            <path d="m 64 66.75 l -72 -72 v 72 z m 0 0" fill="#9141ac"/>
        </g>
    </g>
    <g clip-path="url(#i)">
        <g clip-path="url(#j)">
            <path d="m 64 66.75 l -72 72 v -72 z m 0 0" fill="#048446"/>
        </g>
    </g>
    <g clip-path="url(#k)">
        <g clip-path="url(#l)">
            <path d="m 64 66.75 v 72 l -42 -26.882812 v -5 z m 0 0" fill="#062426"/>
        </g>
    </g>
    <path d="m 64 8.867188 c 30.929688 0 56 25.070312 56 56 v 2 c 0 30.925781 -25.070312 56 -56 56 s -56 -25.074219 -56 -56 v -2 c 0 -30.929688 25.070312 -56 56 -56 z m 0 0" fill="#06ba63"/>
    <path d="m 100 64.867188 c 0 19.882812 -16.117188 36 -36 36 s -36 -16.117188 -36 -36 c 0 -19.882813 16.117188 -36 36 -36 s 36 16.117187 36 36 z m 0 0" fill="#f6f5f4"/>
    <g clip-path="url(#m)">
        <g clip-path="url(#n)">
            <path d="m 64 64.867188 v -72 h 72 v 72 z m 0 0" fill="#64e9ee"/>
            <path d="m 64 64.867188 l 72 -72 v 72 z m 0 0" fill="#97c8eb"/>
        </g>
    </g>
    <g clip-path="url(#o)">
        <g clip-path="url(#p)">
            <path d="m 64 64.867188 v 72 h 72 v -72 z m 0 0" fill="#8b94a3"/>
            <path d="m 64 64.867188 l 72 72 v -72 z m 0 0" fill="#3aafb9"/>
        </g>
    </g>
    <g clip-path="url(#q)">
        <g clip-path="url(#r)">
            <path d="m 64 64.867188 v -72 h -72 v 72 z m 0 0" fill="#8cfbde"/>
            <path d="m 64 64.867188 l -72 -72 v 72 z m 0 0" fill="#0fff95"/>
        </g>
    </g>
    <g clip-path="url(#s)">
        <g clip-path="url(#t)">
            <path d="m 64 64.867188 v 72 h -72 v -72 z m 0 0" fill="#093a3e"/>
            <path d="m 64 64.867188 l -72 72 v -72 z m 0 0" fill="#06ba63"/>
        </g>
    </g>
    <path d="m 58.007812 77.851562 v -3.484374 c -2.957031 0 -3.660156 -1.210938 -3.660156 -3.828126 v -4.128906 c 0 -1.964844 -0.78125 -3.625 -4.179687 -4.304687 v -0.480469 c 3.398437 -0.679688 4.179687 -2.351562 4.179687 -4.316406 v -4.128906 c 0 -2.605469 0.703125 -3.8125 3.660156 -3.8125 v -3.5 c -5.035156 0 -7.992187 1.269531 -7.992187 6.949218 v 3.207032 c 0 2.644531 -0.980469 3.726562 -3.839844 3.726562 v 4.230469 c 2.859375 0 3.839844 1.082031 3.839844 3.726562 v 3.199219 c 0 5.675781 2.957031 6.945312 7.992187 6.945312 z m 0 0"/>
    <path d="m 69.980469 45.878906 v 3.488282 c 2.957031 0 3.660156 1.207031 3.660156 3.824218 v 4.128906 c 0 1.964844 0.78125 3.625 4.179687 4.304688 v 0.480469 c -3.398437 0.679687 -4.179687 2.355469 -4.179687 4.316406 v 4.128906 c 0 2.605469 -0.703125 3.816407 -3.660156 3.816407 v 3.5 c 5.035156 0 7.992187 -1.273438 7.992187 -6.949219 v -3.210938 c 0 -2.644531 0.980469 -3.726562 3.839844 -3.726562 v -4.230469 c -2.859375 0 -3.839844 -1.082031 -3.839844 -3.726562 v -3.195313 c 0 -5.679687 -2.957031 -6.949219 -7.992187 -6.949219 z m 0 0"/>
    <path d="m 48 83.761719 h 32 v 4.117187 h -32 z m 0 0" fill="#62a0ea" fill-rule="evenodd"/>
</svg>
