<?xml version="1.0" encoding="UTF-8"?>
<svg height="16px" viewBox="0 0 16 16" width="16px" xmlns="http://www.w3.org/2000/svg">
    <path d="m 7.101562 12.191406 v -0.914062 c -0.773437 0 -0.960937 -0.316406 -0.960937 -1 v -1.085938 c 0 -0.511718 -0.203125 -0.949218 -1.09375 -1.128906 v -0.125 c 0.890625 -0.175781 1.09375 -0.617188 1.09375 -1.128906 v -1.085938 c 0 -0.679687 0.1875 -1 0.960937 -1 v -0.914062 c -1.320312 0 -2.09375 0.332031 -2.09375 1.820312 v 0.839844 c 0 0.695312 -0.257812 0.976562 -1.007812 0.976562 v 1.109376 c 0.75 0 1.007812 0.285156 1.007812 0.976562 v 0.839844 c 0 1.488281 0.773438 1.820312 2.09375 1.820312 z m 0 0"/>
    <path d="m 8.898438 3.808594 v 0.914062 c 0.773437 0 0.960937 0.316406 0.960937 1 v 1.085938 c 0 0.511718 0.203125 0.949218 1.09375 1.128906 v 0.125 c -0.890625 0.175781 -1.09375 0.617188 -1.09375 1.128906 v 1.085938 c 0 0.679687 -0.1875 1 -0.960937 1 v 0.917968 c 1.320312 0 2.09375 -0.335937 2.09375 -1.824218 v -0.839844 c 0 -0.695312 0.257812 -0.976562 1.007812 -0.976562 v -1.109376 c -0.75 0 -1.007812 -0.285156 -1.007812 -0.976562 v -0.839844 c 0 -1.488281 -0.773438 -1.820312 -2.09375 -1.820312 z m 0 0"/>
    <g fill-rule="evenodd">
        <path d="m 8 0 v 2 c 3.324219 0 6 2.675781 6 6 h 2 c 0 -4.40625 -3.59375 -8 -8 -8 z m 0 0" fill-opacity="0.698039"/>
        <path d="m 14 8 c 0 3.324219 -2.675781 6 -6 6 v 2 c 4.40625 0 8 -3.59375 8 -8 z m 0 0" fill-opacity="0.490196"/>
        <path d="m 0 8 c 0 4.40625 3.59375 8 8 8 v -2 c -3.324219 0 -6 -2.675781 -6 -6 z m 0 0" fill-opacity="0.309804"/>
        <path d="m 8 0 c -4.40625 0 -8 3.59375 -8 8 h 2 c 0 -3.324219 2.675781 -6 6 -6 z m 0 0"/>
    </g>
</svg>
